# xmcd
#
# Track frame offsets:
#	150
#	14291
#	29715
#	42562
#	57476
#	71768
#	93531
#	106276
#	120335
#	128641
#	143546
#	155167
#	168704
#	185521
#
# Disc length: 2671 seconds
#
# Revision: 0
# Processed by: cddbd v1.5.2PL0 Copyright (c) Steve Scherf et al.
# Submitted via: dBpowerAMP V4.0
#
DISCID=ca0a6d0e
DTITLE=Various Artist - Hits Forever
DYEAR=1900
DGENRE=
TTITLE0=Elvis Presley - Are you lonesome tonight ?
TTITLE1=Nat King Cole - Too Young
TTITLE2=Andy Willians - Feelings
TTITLE3=James Taylor - Fire and Rain
TTITLE4=B. J. Thomas - I Just can't help believin'
TTITLE5=Jose Feliciano - Jealous guy
TTITLE6=Roy Orbison - In dreams
TTITLE7=John Denver - Annie's song
TTITLE8=Tom Jones - Starting Over
TTITLE9=Cat Stevens - Wild world
TTITLE10=Paul Anka - Put your head into my shoulders
TTITLE11=Kenny Rogers - I will always love you
TTITLE12=Brook Benton - A rainy night in Georgia
TTITLE13=Al Jarreau - Let's stay together
EXTD=
EXTT0=
EXTT1=
EXTT2=
EXTT3=
EXTT4=
EXTT5=
EXTT6=
EXTT7=
EXTT8=
EXTT9=
EXTT10=
EXTT11=
EXTT12=
EXTT13=
PLAYORDER=
